<svg width="100" height="100" viewBox="0 0 100 100" fill="none" xmlns="http://www.w3.org/2000/svg">
<path d="M93.75 49.7031C93.3356 49.7031 92.9382 49.5385 92.6451 49.2455C92.3521 48.9525 92.1875 48.555 92.1875 48.1406C92.1875 25.8906 74.6094 7.8125 52.9531 7.8125C52.5387 7.8125 52.1413 7.64788 51.8483 7.35485C51.5552 7.06183 51.3906 6.6644 51.3906 6.25C51.3906 5.8356 51.5552 5.43817 51.8483 5.14515C52.1413 4.85212 52.5387 4.6875 52.9531 4.6875C76.3125 4.6875 95.3125 24.1875 95.3125 48.1719C95.3043 48.5808 95.1361 48.9703 94.844 49.2566C94.5518 49.5429 94.159 49.7032 93.75 49.7031Z" fill="white"/>
<path d="M76.7187 49.7031C76.3043 49.7031 75.9069 49.5385 75.6139 49.2455C75.3209 48.9525 75.1562 48.555 75.1562 48.1406C75.2315 42.1669 72.9377 36.4066 68.7768 32.1197C64.6158 27.8328 58.9264 25.3684 52.9531 25.2656C52.5387 25.2656 52.1413 25.101 51.8483 24.808C51.5552 24.515 51.3906 24.1175 51.3906 23.7031C51.3906 23.2887 51.5552 22.8913 51.8483 22.5983C52.1413 22.3052 52.5387 22.1406 52.9531 22.1406C59.751 22.2353 66.2337 25.0226 70.979 29.891C75.7244 34.7594 78.3449 41.3113 78.2656 48.1094C78.2697 48.3159 78.2329 48.5211 78.1572 48.7133C78.0815 48.9055 77.9685 49.0807 77.8246 49.2289C77.6808 49.3771 77.509 49.4954 77.3192 49.5768C77.1293 49.6581 76.9253 49.7011 76.7187 49.7031ZM85.9375 82.5469C83.9428 86.5392 81.1132 90.0561 77.6406 92.8594C76.4011 93.8416 74.9697 94.5534 73.4385 94.949C71.9072 95.3446 70.3101 95.4152 68.75 95.1562C54.5781 92.75 40.625 86.5312 26.7031 72.8437C13.4062 58.5781 7.17186 44.0156 4.82811 29.4687C4.56872 27.8707 4.63283 26.2368 5.01664 24.664C5.40045 23.0912 6.09615 21.6114 7.06249 20.3125C9.76492 16.7386 13.2219 13.8044 17.1875 11.7187C17.5684 11.3188 18.0265 11.0004 18.5342 10.7829C19.0418 10.5653 19.5883 10.4531 20.1406 10.4531C20.6929 10.4531 21.2394 10.5653 21.7471 10.7829C22.2547 11.0004 22.7128 11.3188 23.0937 11.7187L36.8594 26.0156C37.6974 26.9151 38.1633 28.0988 38.1633 29.3281C38.1633 30.5575 37.6974 31.7412 36.8594 32.6406L27.1094 43.2187C31.25 52.2969 46.5469 68.0469 55.3281 72.2969L65.625 62.25C66.0473 61.8267 66.549 61.4909 67.1013 61.2617C67.6537 61.0326 68.2458 60.9146 68.8437 60.9146C69.4417 60.9146 70.0338 61.0326 70.5861 61.2617C71.1384 61.4909 71.6401 61.8267 72.0625 62.25L85.9687 76.3125C86.3782 76.7227 86.7023 77.2099 86.9225 77.7461C87.1427 78.2822 87.2546 78.8566 87.2517 79.4362C87.2488 80.0158 87.1312 80.589 86.9056 81.1229C86.68 81.6568 86.351 82.1408 85.9375 82.5469Z" fill="white"/>
</svg>
