<?xml version="1.0" encoding="iso-8859-1"?>
<!-- Uploaded to: SVG Repo, www.svgrepo.com, Generator: SVG Repo Mixer Tools -->
<svg height="800px" width="800px" version="1.1" id="Layer_1" xmlns="http://www.w3.org/2000/svg" xmlns:xlink="http://www.w3.org/1999/xlink" 
	 viewBox="0 0 141.74 141.74" xml:space="preserve">
<g>
	<circle style="fill:#00B8D4;" cx="70.87" cy="70.87" r="70.87"/>
	<g>
		<path style="fill:#FFFFFF;" d="M56.952,45.664v-5.067c0-2.077,1.688-3.766,3.766-3.766h20.305c2.076,0,3.766,1.689,3.766,3.766
			v5.067h5.707v-5.067c0-5.224-4.249-9.473-9.473-9.473H60.718c-5.224,0-9.473,4.249-9.473,9.473v5.067H56.952z"/>
		<g>
			<path style="fill:#FFFFFF;" d="M50.033,77.461c0.962-10.666,9.921-19.024,20.837-19.024c10.915,0,19.874,8.359,20.837,19.024
				h20.2V54.683c0-3.63-2.942-6.573-6.572-6.573h-68.93c-3.63,0-6.573,2.943-6.573,6.573v22.778H50.033z"/>
			<path style="fill:#FFFFFF;" d="M91.707,81.266c-0.962,10.665-9.921,19.024-20.837,19.024s-19.875-8.359-20.837-19.024H29.832
				v22.778c0,3.63,2.943,6.573,6.573,6.573h68.93c3.63,0,6.572-2.943,6.572-6.573V81.266H91.707z"/>
		</g>
		<path style="fill:#FFFFFF;" d="M84.51,76.374h-9.614c-0.572,0-1.036-0.464-1.036-1.036v-9.614c0-0.572-0.464-1.036-1.036-1.036
			h-3.906c-0.572,0-1.036,0.464-1.036,1.036v9.614c0,0.572-0.464,1.036-1.036,1.036H57.23c-0.572,0-1.036,0.464-1.036,1.036v3.907
			c0,0.572,0.464,1.036,1.036,1.036h9.614c0.572,0,1.036,0.464,1.036,1.036v9.614c0,0.572,0.464,1.036,1.036,1.036h3.906
			c0.572,0,1.036-0.464,1.036-1.036v-9.614c0-0.572,0.464-1.036,1.036-1.036h9.614c0.572,0,1.036-0.464,1.036-1.036V77.41
			C85.546,76.837,85.082,76.374,84.51,76.374z"/>
	</g>
</g>
</svg>