<!DOCTYPE svg PUBLIC "-//W3C//DTD SVG 1.1//EN" "http://www.w3.org/Graphics/SVG/1.1/DTD/svg11.dtd">
<!-- Uploaded to: SVG Repo, www.svgrepo.com, Transformed by: SVG Repo Mixer Tools -->
<svg height="800px" width="800px" version="1.1" id="Layer_1" xmlns="http://www.w3.org/2000/svg" xmlns:xlink="http://www.w3.org/1999/xlink" viewBox="0 0 512 512" xml:space="preserve" fill="#ffffff" stroke="#ffffff">
<g id="SVGRepo_bgCarrier" stroke-width="0"/>
<g id="SVGRepo_tracerCarrier" stroke-linecap="round" stroke-linejoin="round"/>
<g id="SVGRepo_iconCarrier"> <g> <circle style="fill:#5cdcff;" cx="256" cy="256" r="256"/> <path id="SVGCleanerId_0" style="fill:#FFFFFF;" d="M331.72,120.586c-34.422,0-40.878,33.777-75.72,33.777l0,0 c-34.847,0-41.298-33.777-75.72-33.777c-42.153,0-59.965,43.095-59.965,85.248s35.743,195.052,77.896,195.052 c17.828,0,21.924-97.807,57.795-97.807s39.967,97.807,57.795,97.807c42.153,0,77.896-152.899,77.896-195.052 S373.873,120.586,331.72,120.586z"/> <g> <path id="SVGCleanerId_0_1_" style="fill:#FFFFFF;" d="M331.72,120.586c-34.422,0-40.878,33.777-75.72,33.777l0,0 c-34.847,0-41.298-33.777-75.72-33.777c-42.153,0-59.965,43.095-59.965,85.248s35.743,195.052,77.896,195.052 c17.828,0,21.924-97.807,57.795-97.807s39.967,97.807,57.795,97.807c42.153,0,77.896-152.899,77.896-195.052 S373.873,120.586,331.72,120.586z"/> </g> <path style="fill:#bef1fe;" d="M256,287.529c-53.56,0-99.558-46.316-120.141-81.966l-0.005,0.271 c0,50.171,35.22,163.517,57.846,177.971c2.56-5.949,5.663-16.292,7.9-23.736C211.318,327.747,223.396,287.529,256,287.529 s44.687,40.228,54.4,72.55c2.237,7.439,5.34,17.777,7.895,23.731C340.92,369.341,376.141,256,376.141,205.839l-0.005-0.271 C355.558,241.213,309.56,287.529,256,287.529z"/> <path style="fill:#bef1fe;" d="M208.015,149.412c-3.149-2.591-5.914-4.787-8.576-6.656c6.508,26.132,29.327,45.471,56.561,45.471 s50.048-19.333,56.556-45.466c-2.657,1.869-5.422,4.065-8.571,6.656c-11.11,9.134-24.94,20.506-47.99,20.506 S219.126,158.541,208.015,149.412z"/> </g> </g>
</svg>